<svg width="146" height="146" viewBox="0 0 146 146" fill="none" xmlns="http://www.w3.org/2000/svg">
<g filter="url(#filter0_d)">
<path d="M19 72C19 42.7289 42.7289 19 72 19C101.271 19 125 42.7289 125 72C125 101.271 101.271 125 72 125C42.7289 125 19 101.271 19 72Z" fill="#FCFCFC"/>
</g>
<path d="M63.6008 65.3149L76.789 58.7208L78.3605 61.8638L65.1723 68.4579L63.6008 65.3149Z" fill="#6D6E71"/>
<path d="M63.595 78.6863L65.1665 75.5433L78.3547 82.1374L76.7832 85.2803L63.595 78.6863Z" fill="#6D6E71"/>
<path d="M54.1834 58.8164L45.9231 72L54.1834 85.1836C61.4645 85.1836 67.367 79.2811 67.367 72C67.367 64.7189 61.4645 58.8164 54.1834 58.8164Z" fill="#7A7C81"/>
<path d="M41 72C41 79.2811 46.9025 85.1836 54.1836 85.1836V58.8164C46.9025 58.8164 41 64.7189 41 72Z" fill="#8C8D92"/>
<path d="M54.1841 65.8477L50.3293 72L54.1841 78.1523C57.582 78.1523 60.3365 75.3979 60.3365 72C60.3365 68.6021 57.582 65.8477 54.1841 65.8477Z" fill="#F3BF0F"/>
<path d="M48.0312 72C48.0312 75.3979 50.7857 78.1523 54.1836 78.1523V65.8477C50.7857 65.8477 48.0312 68.6021 48.0312 72Z" fill="#FFCA1A"/>
<path d="M87.8162 42L79.5559 55.1836L87.8162 68.3672C95.0973 68.3672 101 62.4647 101 55.1836C101 47.9025 95.0973 42 87.8162 42Z" fill="#7A7C81"/>
<path d="M74.6328 55.1836C74.6328 62.4647 80.5353 68.3672 87.8164 68.3672V42C80.5353 42 74.6328 47.9025 74.6328 55.1836Z" fill="#8C8D92"/>
<path d="M87.8169 49.0312L83.9622 55.1836L87.8169 61.3359C91.2148 61.3359 93.9693 58.5814 93.9693 55.1836C93.9693 51.7857 91.2148 49.0312 87.8169 49.0312Z" fill="#F3BF0F"/>
<path d="M81.6641 55.1836C81.6641 58.5814 84.4186 61.3359 87.8164 61.3359V49.0312C84.4186 49.0312 81.6641 51.7857 81.6641 55.1836Z" fill="#FFCA1A"/>
<path d="M87.8162 75.6328L79.5559 88.8164L87.8162 102C95.0973 102 101 96.0975 101 88.8164C101 81.5353 95.0973 75.6328 87.8162 75.6328Z" fill="#7A7C81"/>
<path d="M74.6328 88.8164C74.6328 96.0975 80.5353 102 87.8164 102V75.6328C80.5353 75.6328 74.6328 81.5353 74.6328 88.8164Z" fill="#8C8D92"/>
<path d="M87.8169 82.6641L83.9622 88.8164L87.8169 94.9688C91.2148 94.9688 93.9693 92.2143 93.9693 88.8164C93.9693 85.4186 91.2148 82.6641 87.8169 82.6641Z" fill="#F3BF0F"/>
<path d="M81.6641 88.8164C81.6641 92.2143 84.4186 94.9688 87.8164 94.9688V82.6641C84.4186 82.6641 81.6641 85.4186 81.6641 88.8164Z" fill="#FFCA1A"/>
<defs>
<filter id="filter0_d" x="0" y="0" width="146" height="146" filterUnits="userSpaceOnUse" color-interpolation-filters="sRGB">
<feFlood flood-opacity="0" result="BackgroundImageFix"/>
<feColorMatrix in="SourceAlpha" type="matrix" values="0 0 0 0 0 0 0 0 0 0 0 0 0 0 0 0 0 0 127 0"/>
<feOffset dx="1" dy="1"/>
<feGaussianBlur stdDeviation="10"/>
<feColorMatrix type="matrix" values="0 0 0 0 0 0 0 0 0 0 0 0 0 0 0 0 0 0 0.1 0"/>
<feBlend mode="normal" in2="BackgroundImageFix" result="effect1_dropShadow"/>
<feBlend mode="normal" in="SourceGraphic" in2="effect1_dropShadow" result="shape"/>
</filter>
</defs>
</svg>
