<svg width="1107" height="809" viewBox="0 0 1107 809" fill="none" xmlns="http://www.w3.org/2000/svg">
<path d="M784.265 553.112C800.613 670.73 836.102 740.272 924.723 783.238C1013.34 826.203 1123.45 812.881 1206.63 760.273C1289.8 707.665 1347.08 619.553 1374.5 524.934C1425.59 349.325 1376.51 153.919 1269.8 5.46497C1163.1 -142.989 1004.15 -247.796 834.127 -315.191C721.733 -359.69 602.154 -389.401 481.484 -385.687C360.814 -381.973 238.918 -342.79 148.527 -262.754C58.1351 -182.717 -21.5002 -118.5 5.88916 83.2524C37.1891 199.883 64.1294 259.169 179.929 293.241C280.061 322.714 329.48 303.463 391.807 288.982C454.135 274.501 488.106 285.37 552 288.982C615.894 292.594 616.497 417.677 649.5 472.5C684.75 530.968 781.745 483.604 784.265 553.112Z" fill="#FFCA1A"/>
</svg>
