<svg width="30" height="30" viewBox="0 0 30 30" fill="none" xmlns="http://www.w3.org/2000/svg">
<path fill-rule="evenodd" clip-rule="evenodd" d="M18.0321 7.10818L18.0326 7.10849L18.031 7.10849C18.889 7.61848 19.604 8.34744 20.0703 9.23032C20.1356 9.35058 20.1908 9.47142 20.244 9.5948L27.8885 9.58523C29.0476 9.58407 29.9925 10.4591 29.9938 11.5388L30.0001 16.5192C30.0033 17.4031 29.3707 18.1544 28.5034 18.3971C28.491 18.4005 28.4786 18.4039 28.4661 18.4071C28.287 18.4537 28.0984 18.4788 27.9035 18.479L15.0522 18.4993C13.8911 18.5 12.9481 17.622 12.9468 16.5446L12.9424 13.1713L10.266 13.1696L10.266 13.1699L10.2649 13.1699L10.27 16.5498C10.2726 19.0007 12.4197 20.9956 15.055 20.9919L22.9725 20.9799V20.9818C22.9725 20.9818 23.4764 20.998 23.7375 20.998C25.8079 20.9952 27.5267 22.3808 27.881 24.2093L27.8812 24.21C24.9816 27.7259 20.4614 29.9929 15.3743 30C8.77268 30.0103 3.10513 26.2141 0.698838 20.8041C1.14795 20.9336 1.62523 21.0031 2.11977 21.0025L4.61803 21.0216C6.78945 21.0169 8.57591 22.5478 8.80605 24.5116L8.79848 18.5019L6.20316 18.508C6.20272 18.5062 6.2026 18.5057 6.20279 18.5054C6.20286 18.5053 6.20299 18.5052 6.20316 18.5051L2.1122 18.5114C0.955621 18.5114 0.0106248 17.6365 0.00818293 16.5584L3.03141e-06 11.5782C-0.00195045 10.4972 0.940482 9.61928 2.10085 9.61744L14.9517 9.59703C16.1127 9.59645 17.0557 10.4715 17.0577 11.5531L17.0602 13.2109L19.736 13.2073L19.733 11.5482C19.7324 10.8468 19.5568 10.186 19.243 9.59576C18.499 8.18917 16.9792 7.19743 15.2053 7.11188C15.1185 7.1083 15.0355 7.10588 14.946 7.10588L2.0945 7.12502C2.00339 7.12515 1.91288 7.12766 1.82302 7.13249C4.61586 2.85951 9.61614 0.00864785 15.3239 1.94042e-05C21.0785 -0.00862841 26.1229 2.87398 28.9164 7.19673C28.5838 7.12882 28.2387 7.09215 27.8845 7.09261L18.0321 7.10818Z" fill="white"/>
</svg>
