<svg width="716" height="716" viewBox="0 0 716 716" fill="none" xmlns="http://www.w3.org/2000/svg">
<path d="M344.826 190.8C337.952 141.367 323.031 112.14 285.77 94.0824C248.509 76.0249 202.213 81.624 167.243 103.734C132.274 125.844 108.188 162.876 96.6601 202.642C75.1801 276.448 95.8152 358.573 140.68 420.965C185.544 483.357 252.376 527.406 323.861 555.73C371.117 574.432 421.395 586.919 472.131 585.359C522.866 583.798 574.118 567.33 612.123 533.692C650.128 500.054 682.649 427.567 672.095 388.272C658.935 339.255 647.608 314.338 598.92 300.018C556.819 287.632 536.041 295.722 509.835 301.808C483.629 307.894 465.443 317.088 438.579 315.57C411.714 314.052 383.833 302.51 369.957 279.469C355.136 254.896 345.885 220.012 344.826 190.8Z" fill="#06D755"/>
<path d="M651.646 666.61C651.646 666.811 520.16 666.983 358.086 666.983C196.012 666.983 64.4258 666.811 64.4258 666.61C64.4258 666.41 195.883 666.238 358.086 666.238C520.289 666.238 651.646 666.396 651.646 666.61Z" fill="#263238"/>
<path d="M485.004 459.257C460.302 442.073 454.689 409.967 455.677 381.17C455.834 376.373 455.304 371.303 457.596 367.079C459.887 362.854 465.214 359.99 469.51 362.01C473.09 363.685 474.636 367.838 476.67 371.275C479.337 375.854 483.244 379.587 487.94 382.043C491.004 383.633 494.785 384.607 497.806 382.931C501.959 380.654 502.446 374.926 502.417 370.143L502.245 343.408C502.245 338.639 502.245 333.756 503.677 329.217C505.109 324.677 508.446 320.467 512.985 319.193C517.525 317.918 523.167 320.539 524.126 325.222C524.306 327.197 524.349 329.183 524.255 331.164C524.398 333.155 525.315 335.346 527.205 335.904C529.095 336.463 531.029 335.102 532.446 333.713C537.387 328.887 540.738 322.658 543.902 316.529C547.067 310.4 550.074 304.014 554.542 298.744C559.01 293.474 565.21 289.307 572.055 288.92C578.9 288.534 586.204 292.758 587.936 299.474C589.669 306.19 585.688 313.021 581.392 318.462C575.043 326.556 567.557 333.69 559.167 339.642C557.539 340.563 556.246 341.977 555.473 343.68C554.427 346.873 557.449 350.038 560.599 351.083C564.165 352.272 568.031 351.9 571.755 352.344C575.478 352.788 579.516 354.42 580.934 357.943C582.881 362.826 578.8 367.967 574.776 371.303C566.722 378.024 557.572 383.309 547.726 386.926C544.203 388.215 540.566 389.332 537.702 391.809C534.838 394.287 533.148 398.569 534.838 401.948C536.527 405.328 540.952 406.387 544.633 405.7C548.313 405.013 551.621 403.022 555.129 401.705C561.688 399.227 570.179 399.671 574.39 405.356C577.153 409.079 577.397 414.278 575.993 418.731C574.386 423.111 571.923 427.127 568.747 430.545C558.336 443.051 544.791 452.569 529.496 458.125C514.26 463.41 500.14 464.842 485.004 459.3" fill="#FFCA1C"/>
<path d="M580.963 292.887C580.821 293.046 580.668 293.194 580.504 293.331L579.072 294.605C577.827 295.708 575.979 297.34 573.659 299.503C567.092 305.608 560.989 312.194 555.401 319.207C551.836 323.646 548.141 328.658 544.275 334.114C540.408 339.57 536.327 345.456 532.26 351.785C527.952 358.368 524.012 365.185 520.461 372.205C518.613 375.857 516.981 379.68 515.291 383.59C513.601 387.499 511.94 391.437 510.222 395.432C503.695 410.441 498.011 425.801 493.195 441.443C489.313 454.238 486.643 467.37 485.219 480.665C484.296 489.633 484.147 498.665 484.775 507.658C485.033 510.837 485.276 513.315 485.491 514.976C485.591 515.778 485.663 516.408 485.72 516.88C485.74 517.1 485.74 517.32 485.72 517.539C485.658 517.328 485.61 517.113 485.577 516.895C485.505 516.422 485.405 515.806 485.276 515.004C484.99 513.343 484.689 510.88 484.389 507.687C483.629 498.674 483.687 489.611 484.56 480.608C485.901 467.252 488.519 454.055 492.379 441.199C497.157 425.516 502.833 410.121 509.377 395.089L514.461 383.232C516.136 379.337 517.797 375.485 519.644 371.776C523.229 364.733 527.197 357.893 531.53 351.284C535.625 344.954 539.75 339.098 543.63 333.642C547.511 328.186 551.277 323.188 554.872 318.778C560.537 311.8 566.748 305.283 573.445 299.288C575.793 297.169 577.741 295.565 578.972 294.505L580.404 293.302C580.577 293.146 580.764 293.007 580.963 292.887Z" fill="#263238"/>
<path d="M519.959 371.776C519.726 371.118 519.567 370.436 519.486 369.742C519.243 368.425 518.942 366.492 518.599 364.115C517.926 359.36 517.167 352.759 516.465 345.499C515.763 338.238 514.904 331.637 514.159 326.883C513.801 324.52 513.486 322.587 513.243 321.284C513.08 320.603 512.989 319.907 512.971 319.207C513.252 319.848 513.454 320.522 513.572 321.212C513.916 322.515 514.331 324.405 514.775 326.768C515.677 331.508 516.58 338.095 517.338 345.384C518.097 352.673 518.77 359.088 519.214 364C519.458 366.234 519.658 368.124 519.83 369.642C519.953 370.346 519.996 371.062 519.959 371.776Z" fill="#263238"/>
<path d="M581.392 360.291C580.582 360.47 579.758 360.57 578.929 360.592C577.354 360.735 575.077 360.921 572.27 361.251C566.628 361.852 558.881 362.969 550.389 364.559C541.897 366.148 534.308 368.024 528.837 369.456C526.088 370.158 523.883 370.788 522.35 371.217C521.575 371.494 520.774 371.69 519.959 371.805C520.696 371.435 521.462 371.129 522.25 370.888C523.754 370.358 525.93 369.628 528.666 368.84C534.121 367.236 541.74 365.346 550.26 363.714C557.525 362.316 564.857 361.293 572.227 360.649C575.091 360.406 577.354 360.306 578.943 360.277C579.758 360.21 580.578 360.215 581.392 360.291Z" fill="#263238"/>
<path d="M493.181 440.068C493.006 439.842 492.866 439.591 492.765 439.323L491.72 437.104C490.804 435.17 489.572 432.335 488.097 428.812C485.133 421.767 481.338 411.915 477.3 400.989C473.262 390.062 469.581 380.182 466.76 373.079C465.328 369.642 464.24 366.807 463.409 364.687C463.037 363.771 462.751 363.026 462.507 362.411C462.381 362.148 462.294 361.868 462.25 361.58C462.426 361.811 462.566 362.066 462.665 362.339C462.951 362.926 463.295 363.671 463.71 364.559C464.627 366.492 465.858 369.327 467.333 372.85C470.297 379.881 474.092 389.733 478.13 400.674C482.169 411.614 485.849 421.481 488.67 428.569L492.021 436.96C492.393 437.877 492.68 438.636 492.923 439.252C493.046 439.511 493.133 439.785 493.181 440.068Z" fill="#263238"/>
<path d="M574.848 413.748C574.596 413.896 574.327 414.011 574.046 414.092L571.669 414.879L562.933 417.743C555.544 420.135 545.377 423.571 534.165 427.366C522.952 431.161 512.684 434.526 505.295 436.746C501.572 437.863 498.565 438.736 496.46 439.309L494.04 439.939C493.496 440.082 493.195 440.14 493.181 440.097C493.438 439.953 493.712 439.842 493.997 439.767L496.374 438.98L505.109 436.116C512.498 433.724 522.651 430.287 533.878 426.493C545.105 422.698 555.358 419.333 562.747 417.113C566.456 415.996 569.478 415.108 571.568 414.55L573.988 413.92C574.266 413.824 574.555 413.766 574.848 413.748Z" fill="#263238"/>
<path d="M504.68 453.328C507.181 453.326 509.638 452.663 511.801 451.405C513.964 450.148 515.755 448.341 516.995 446.168C518.196 443.976 518.948 441.567 519.206 439.081C519.464 436.595 519.223 434.083 518.499 431.691C517.868 429.471 516.723 427.166 514.603 426.249C513.587 425.881 512.49 425.792 511.428 425.991C510.365 426.19 509.375 426.67 508.56 427.38C506.948 428.824 505.743 430.666 505.066 432.722C502.446 439.653 501.2 446.813 504.68 453.343" fill="#455A64"/>
<path d="M502.016 466.631C507.291 466.446 512.534 467.518 517.312 469.759C522.09 472 526.267 475.345 529.496 479.519C531.115 481.653 532.489 484.589 531.129 486.894C529.768 489.2 526.504 489.429 523.869 488.971C518.364 487.941 513.288 485.301 509.283 481.386C505.279 477.471 502.526 472.456 501.372 466.975" fill="#455A64"/>
<path d="M566.127 448.101C564.785 446.311 563.095 444.811 561.158 443.692C559.221 442.572 557.078 441.855 554.857 441.586C550.404 441.073 545.892 441.588 541.668 443.089C533.449 445.739 525.916 452.24 520.188 458.755C527.806 464.584 538.919 464.025 544.532 463.395C553.411 462.393 568.876 455.19 566.012 448.101" fill="#455A64"/>
<path d="M482.584 467.391C483.992 467.054 485.379 466.633 486.737 466.13C491.757 463.981 496.463 461.163 500.728 457.753C505.022 454.274 508.293 449.697 510.193 444.507C510.733 442.927 511.079 441.287 511.224 439.624C511.319 439.017 511.319 438.398 511.224 437.791C510.84 439.983 510.29 442.142 509.577 444.249C507.543 449.221 504.293 453.604 500.126 456.994C495.909 460.333 491.326 463.182 486.465 465.486" fill="#263238"/>
<path d="M482.398 467.419L490.345 465.658C497.061 464.154 506.341 462.106 516.608 459.93C526.876 457.753 536.212 456.006 542.971 454.717L550.976 453.171C551.95 453.029 552.908 452.799 553.84 452.483C552.841 452.514 551.845 452.62 550.862 452.798C548.957 453.056 546.208 453.486 542.814 454.044C536.012 455.161 526.661 456.908 516.379 458.985C506.097 461.061 496.818 463.281 490.145 464.942C486.808 465.772 484.116 466.474 482.255 466.99" fill="#263238"/>
<path d="M521.248 480.035C521.002 479.512 520.679 479.029 520.288 478.603C519.9 478.045 519.469 477.519 519 477.028C518.408 476.343 517.776 475.693 517.109 475.08C515.398 473.463 513.527 472.023 511.525 470.784C509.064 469.283 506.447 468.054 503.72 467.118C500.97 466.227 498.133 465.632 495.257 465.343C492.912 465.126 490.551 465.15 488.212 465.414C487.311 465.494 486.416 465.633 485.534 465.83C484.864 465.937 484.203 466.095 483.558 466.302C482.484 466.617 482.269 467.018 482.283 467.075C484.26 466.641 486.258 466.312 488.269 466.087C490.569 465.933 492.879 465.981 495.171 466.231C500.788 466.844 506.209 468.656 511.066 471.543C513.045 472.724 514.915 474.081 516.651 475.596C519.63 478.159 521.119 480.15 521.248 480.035Z" fill="#263238"/>
<path d="M455.748 546.151L296.037 545.406C291.47 545.385 286.951 544.465 282.738 542.698C278.526 540.931 274.703 538.351 271.488 535.107C268.273 531.862 265.728 528.016 263.999 523.788C262.27 519.56 261.391 515.033 261.412 510.465L263.101 110.092C263.122 105.522 264.043 101.002 265.81 96.7876C267.578 92.5737 270.159 88.7492 273.405 85.5326C276.651 82.3159 280.498 79.7701 284.728 78.0405C288.958 76.3109 293.487 75.4313 298.056 75.4521L457.753 76.1967C466.976 76.2384 475.804 79.9411 482.298 86.4907C488.791 93.0403 492.417 101.901 492.379 111.123L490.689 511.496C490.672 516.066 489.755 520.588 487.989 524.804C486.224 529.019 483.645 532.846 480.4 536.064C477.155 539.282 473.308 541.83 469.078 543.56C464.848 545.291 460.319 546.171 455.748 546.151Z" fill="#263238"/>
<path d="M457.524 90.0155L426.564 89.8723C425.555 89.8891 424.559 90.1048 423.633 90.507C422.707 90.9092 421.87 91.4901 421.169 92.2163C420.468 92.9426 419.917 93.8 419.548 94.7394C419.179 95.6788 418.999 96.6819 419.018 97.6911V103.304C419.037 104.314 418.856 105.318 418.487 106.258C418.118 107.199 417.568 108.057 416.867 108.784C416.166 109.512 415.329 110.094 414.403 110.498C413.477 110.901 412.481 111.119 411.471 111.138L351.112 110.851C349.074 110.795 347.141 109.933 345.737 108.454C344.333 106.975 343.573 104.999 343.623 102.961L343.68 97.376C343.73 95.3374 342.97 93.3621 341.566 91.8831C340.162 90.404 338.229 89.5419 336.191 89.4857H325.308L298.2 89.3568C294.992 89.3398 291.813 89.957 288.844 91.1728C285.876 92.3886 283.177 94.179 280.903 96.4413C278.628 98.7035 276.824 101.393 275.592 104.355C274.361 107.317 273.727 110.493 273.727 113.701L272.08 504.336C272.065 507.534 272.68 510.704 273.891 513.664C275.101 516.625 276.883 519.317 279.134 521.589C281.386 523.86 284.063 525.666 287.012 526.902C289.962 528.138 293.126 528.782 296.324 528.795L455.705 529.539C458.913 529.556 462.093 528.939 465.061 527.723C468.03 526.508 470.728 524.717 473.003 522.455C475.277 520.193 477.082 517.503 478.313 514.541C479.544 511.579 480.178 508.403 480.178 505.195L481.839 114.402C481.845 111.204 481.221 108.037 480.001 105.08C478.782 102.123 476.993 99.4358 474.735 97.171C472.477 94.9063 469.794 93.1087 466.841 91.8809C463.888 90.6532 460.722 90.0193 457.524 90.0155Z" fill="#FAFAFA"/>
<path d="M400.645 136.384H359.532V143.93H400.645V136.384Z" fill="#455A64"/>
<path d="M311.002 199.95C311.33 199.958 311.656 200.001 311.975 200.079C312.27 200.001 312.573 199.958 312.878 199.95H311.002Z" fill="#455A64"/>
<path d="M322.271 179.243C321.517 178.2 320.598 177.286 319.551 176.537C317.357 174.918 314.702 174.045 311.975 174.045C309.249 174.045 306.594 174.918 304.4 176.537C303.348 177.286 302.425 178.2 301.665 179.243C300.915 180.223 300.326 181.315 299.918 182.48C299.171 184.5 298.942 186.675 299.252 188.806C299.562 190.938 300.402 192.957 301.694 194.68C301.851 194.895 302.023 195.081 302.18 195.268C302.712 193.557 303.728 192.038 305.106 190.894C306.483 189.751 308.163 189.031 309.942 188.824C308.83 188.338 307.886 187.536 307.226 186.517C306.567 185.499 306.221 184.309 306.233 183.096C306.177 182.298 306.286 181.497 306.553 180.743C306.819 179.989 307.238 179.298 307.784 178.713C308.329 178.128 308.989 177.662 309.723 177.343C310.456 177.024 311.247 176.859 312.047 176.859C312.847 176.859 313.638 177.024 314.371 177.343C315.105 177.662 315.765 178.128 316.31 178.713C316.855 179.298 317.275 179.989 317.541 180.743C317.808 181.497 317.917 182.298 317.861 183.096C317.872 184.307 317.528 185.495 316.871 186.513C316.215 187.531 315.274 188.334 314.166 188.824C315.925 189.035 317.583 189.757 318.937 190.899C320.291 192.042 321.28 193.555 321.785 195.253L322.257 194.68C323.549 192.957 324.388 190.938 324.699 188.806C325.009 186.675 324.78 184.5 324.033 182.48C323.614 181.317 323.02 180.226 322.271 179.243Z" fill="#FAFAFA"/>
<path d="M324.749 182.222C324.325 180.982 323.706 179.817 322.916 178.771C322.118 177.671 321.152 176.705 320.052 175.907C317.72 174.177 314.893 173.243 311.99 173.243C309.086 173.243 306.26 174.177 303.928 175.907C302.824 176.7 301.857 177.667 301.064 178.771C300.274 179.82 299.651 180.984 299.216 182.222C298.401 184.518 298.213 186.989 298.672 189.382C299.067 191.468 299.95 193.431 301.25 195.11C303.115 197.529 305.762 199.225 308.739 199.907C309.532 200.097 310.344 200.193 311.159 200.194C311.44 200.231 311.724 200.231 312.004 200.194C311.685 200.116 311.359 200.073 311.03 200.065H312.906C312.601 200.072 312.299 200.116 312.004 200.194C312.284 200.231 312.569 200.231 312.849 200.194C313.664 200.193 314.476 200.097 315.269 199.907C318.242 199.224 320.884 197.528 322.744 195.11C324.054 193.436 324.943 191.471 325.336 189.382C325.787 186.986 325.585 184.512 324.749 182.222ZM324.62 189.239C324.26 191.242 323.431 193.131 322.2 194.752L321.727 195.325C321.223 193.627 320.233 192.113 318.88 190.971C317.526 189.828 315.868 189.107 314.109 188.895C315.217 188.406 316.157 187.602 316.814 186.584C317.471 185.566 317.815 184.378 317.804 183.167C317.86 182.369 317.751 181.569 317.484 180.815C317.217 180.061 316.798 179.37 316.253 178.785C315.707 178.2 315.048 177.733 314.314 177.414C313.581 177.095 312.789 176.931 311.99 176.931C311.19 176.931 310.399 177.095 309.665 177.414C308.932 177.733 308.272 178.2 307.727 178.785C307.181 179.37 306.762 180.061 306.495 180.815C306.229 181.569 306.12 182.369 306.176 183.167C306.164 184.38 306.51 185.57 307.169 186.589C307.828 187.607 308.773 188.409 309.885 188.895C308.106 189.103 306.426 189.822 305.048 190.966C303.671 192.11 302.654 193.629 302.123 195.339C301.966 195.153 301.794 194.967 301.636 194.752C300.344 193.029 299.505 191.009 299.195 188.878C298.885 186.746 299.114 184.571 299.861 182.551C300.268 181.387 300.858 180.295 301.608 179.315C302.368 178.271 303.291 177.357 304.343 176.609C306.537 174.99 309.192 174.116 311.918 174.116C314.645 174.116 317.299 174.99 319.493 176.609C320.541 177.358 321.46 178.272 322.214 179.315C322.963 180.298 323.557 181.389 323.976 182.551C324.778 184.684 325 186.992 324.62 189.239Z" fill="#455A64"/>
<path d="M466.689 212.008C466.689 212.008 467.104 212.008 467.877 211.85C469.025 211.613 470.082 211.057 470.927 210.246C471.606 209.59 472.13 208.79 472.462 207.906C472.794 207.022 472.925 206.075 472.846 205.134C472.846 202.857 472.846 200.237 472.846 197.301C472.846 191.401 472.846 184.198 472.775 175.821C472.775 173.73 472.775 171.525 472.775 169.32C472.833 168.208 472.585 167.102 472.057 166.122C471.529 165.142 470.742 164.326 469.782 163.764C467.806 162.518 465.228 163.062 462.751 162.947H455.047L290.367 163.062C289.428 163.066 288.504 163.292 287.67 163.723C286.836 164.153 286.116 164.776 285.569 165.539C285.025 166.302 284.676 167.187 284.553 168.117C284.479 169.07 284.456 170.026 284.481 170.981V205.907C284.523 206.792 284.763 207.655 285.184 208.434C285.606 209.212 286.198 209.886 286.915 210.404C287.624 210.921 288.442 211.269 289.307 211.42C290.21 211.527 291.12 211.56 292.028 211.521H324.477L398.497 211.607L448.388 211.736L461.963 211.807H465.486C466.288 211.807 466.689 211.807 466.689 211.807H465.486H461.963L448.388 211.893L398.497 212.022L324.477 212.108H292.028C291.071 212.14 290.114 212.102 289.164 211.993C287.672 211.726 286.316 210.959 285.317 209.82C284.317 208.68 283.735 207.235 283.665 205.721C283.665 198.132 283.665 190.418 283.665 182.58V170.752C283.665 169.749 283.665 168.79 283.665 167.716C283.82 166.683 284.218 165.702 284.825 164.852C285.443 163.971 286.264 163.251 287.218 162.752C288.173 162.254 289.233 161.992 290.309 161.988L454.989 162.102H466.445C467.702 162.055 468.946 162.374 470.025 163.019C471.06 163.632 471.908 164.516 472.476 165.576C473.044 166.637 473.311 167.832 473.247 169.033C473.247 171.267 473.247 173.444 473.247 175.535C473.247 183.897 473.247 191.1 473.176 197.015C473.176 199.95 473.176 202.571 473.176 204.848C473.241 205.819 473.09 206.793 472.733 207.7C472.376 208.606 471.823 209.422 471.114 210.089C470.235 210.9 469.141 211.442 467.963 211.65C467.558 211.831 467.129 211.952 466.689 212.008Z" fill="#455A64"/>
<path d="M384.005 175.506H337.494V179H384.005V175.506Z" fill="#455A64"/>
<path d="M418.974 195.21H337.494V198.704H418.974V195.21Z" fill="#455A64"/>
<path d="M455.576 185.115H337.494V188.609H455.576V185.115Z" fill="#455A64"/>
<path d="M311.002 323.331C311.632 323.417 311.975 323.417 311.975 323.474C312.27 323.397 312.573 323.353 312.878 323.346L311.002 323.331Z" fill="#455A64"/>
<path d="M322.271 302.639C321.521 301.592 320.601 300.678 319.551 299.932C317.357 298.314 314.702 297.44 311.975 297.44C309.249 297.44 306.594 298.314 304.4 299.932C302.349 301.424 300.789 303.493 299.918 305.875C299.171 307.895 298.942 310.07 299.252 312.202C299.562 314.333 300.402 316.353 301.694 318.076L302.18 318.663C302.707 316.95 303.722 315.428 305.1 314.283C306.479 313.139 308.162 312.421 309.942 312.219C308.83 311.733 307.886 310.931 307.226 309.913C306.567 308.894 306.221 307.704 306.233 306.491C306.177 305.693 306.286 304.892 306.553 304.138C306.819 303.384 307.238 302.693 307.784 302.108C308.329 301.523 308.989 301.057 309.723 300.738C310.456 300.419 311.247 300.254 312.047 300.254C312.847 300.254 313.638 300.419 314.371 300.738C315.105 301.057 315.765 301.523 316.31 302.108C316.855 302.693 317.275 303.384 317.541 304.138C317.808 304.892 317.917 305.693 317.861 306.491C317.87 307.702 317.525 308.889 316.869 309.907C316.213 310.924 315.273 311.728 314.166 312.219C315.924 312.428 317.582 313.147 318.935 314.287C320.289 315.427 321.28 316.938 321.785 318.634L322.257 318.076C323.549 316.353 324.388 314.333 324.699 312.202C325.009 310.07 324.78 307.895 324.033 305.875C323.614 304.713 323.02 303.621 322.271 302.639Z" fill="#FAFAFA"/>
<path d="M324.749 305.617C324.329 304.371 323.71 303.2 322.916 302.152C322.118 301.052 321.152 300.086 320.052 299.288C317.72 297.558 314.893 296.624 311.99 296.624C309.086 296.624 306.26 297.558 303.928 299.288C301.766 300.895 300.122 303.1 299.202 305.632C298.385 307.927 298.197 310.399 298.658 312.792C299.052 314.878 299.935 316.841 301.236 318.52C303.105 320.931 305.751 322.62 308.725 323.303C309.516 323.503 310.329 323.604 311.145 323.603C311.425 323.641 311.709 323.641 311.99 323.603C311.99 323.603 311.646 323.603 311.016 323.46H312.892C312.587 323.468 312.284 323.511 311.99 323.589C312.27 323.626 312.554 323.626 312.835 323.589C313.651 323.59 314.464 323.489 315.255 323.288C318.224 322.605 320.865 320.915 322.73 318.505C324.038 316.83 324.926 314.866 325.322 312.777C325.781 310.383 325.583 307.909 324.749 305.617ZM324.62 312.634C324.266 314.607 323.457 316.47 322.257 318.076L321.785 318.634C321.28 316.938 320.289 315.427 318.936 314.287C317.582 313.147 315.924 312.428 314.166 312.219C315.273 311.728 316.213 310.924 316.869 309.907C317.525 308.889 317.87 307.702 317.861 306.491C317.917 305.693 317.808 304.892 317.541 304.138C317.275 303.384 316.856 302.693 316.31 302.108C315.765 301.523 315.105 301.057 314.372 300.738C313.638 300.419 312.847 300.254 312.047 300.254C311.247 300.254 310.456 300.419 309.723 300.738C308.989 301.057 308.329 301.523 307.784 302.108C307.239 302.693 306.82 303.384 306.553 304.138C306.286 304.892 306.177 305.693 306.233 306.491C306.222 307.704 306.567 308.894 307.226 309.913C307.886 310.931 308.83 311.733 309.942 312.219C308.162 312.421 306.479 313.139 305.1 314.283C303.722 315.428 302.707 316.95 302.181 318.663L301.694 318.076C300.402 316.353 299.563 314.333 299.252 312.202C298.942 310.07 299.171 307.895 299.918 305.875C300.789 303.493 302.349 301.424 304.4 299.932C306.594 298.314 309.249 297.44 311.976 297.44C314.702 297.44 317.357 298.314 319.551 299.932C320.601 300.678 321.521 301.592 322.272 302.639C323.02 303.621 323.614 304.713 324.033 305.875C324.829 308.035 325.032 310.369 324.62 312.634Z" fill="#455A64"/>
<path d="M466.689 335.403C466.689 335.403 467.104 335.403 467.877 335.246C469.025 335.008 470.082 334.453 470.927 333.642C471.608 332.983 472.133 332.182 472.465 331.295C472.797 330.408 472.927 329.459 472.846 328.515C472.846 326.253 472.846 323.632 472.846 320.682C472.846 314.797 472.846 307.579 472.775 299.202C472.775 297.111 472.775 294.906 472.775 292.715C472.832 291.602 472.584 290.494 472.056 289.512C471.529 288.53 470.742 287.711 469.782 287.145C467.806 285.899 465.228 286.443 462.751 286.328H455.046L290.367 286.457C289.427 286.457 288.502 286.682 287.667 287.113C286.833 287.544 286.113 288.169 285.569 288.935C285.023 289.692 284.674 290.572 284.553 291.498C284.48 292.451 284.456 293.407 284.481 294.362V329.36C284.525 330.244 284.766 331.107 285.187 331.885C285.608 332.663 286.199 333.337 286.915 333.857C287.624 334.374 288.442 334.722 289.307 334.873C290.21 334.973 291.119 335.006 292.028 334.973H324.477L398.497 335.059L448.388 335.203H461.963H465.486C466.288 335.203 466.689 335.203 466.689 335.203C466.689 335.203 466.288 335.203 465.486 335.203H461.963L448.388 335.274L398.497 335.417L324.477 335.503H292.028C291.072 335.541 290.114 335.507 289.164 335.403C287.711 335.142 286.385 334.408 285.393 333.315C284.401 332.222 283.798 330.831 283.679 329.36C283.679 321.77 283.679 314.057 283.679 306.219V294.391C283.679 293.388 283.679 292.443 283.679 291.355C283.824 290.297 284.222 289.29 284.839 288.419C285.459 287.54 286.28 286.821 287.234 286.323C288.188 285.825 289.247 285.561 290.324 285.555L455.004 285.67H466.46C467.373 285.634 468.284 285.79 469.134 286.128C469.984 286.465 470.754 286.977 471.395 287.629C472.035 288.282 472.532 289.062 472.854 289.918C473.175 290.774 473.314 291.688 473.262 292.601C473.262 294.835 473.262 296.997 473.262 299.088C473.262 307.45 473.262 314.668 473.19 320.568C473.19 323.517 473.19 326.138 473.19 328.401C473.256 329.372 473.105 330.347 472.749 331.253C472.392 332.16 471.838 332.975 471.128 333.642C470.249 334.456 469.156 335.003 467.977 335.217C467.559 335.341 467.125 335.404 466.689 335.403Z" fill="#455A64"/>
<path d="M384.005 298.887H337.494V302.381H384.005V298.887Z" fill="#455A64"/>
<path d="M418.974 318.606H337.494V322.1H418.974V318.606Z" fill="#455A64"/>
<path d="M455.576 308.51H337.494V312.004H455.576V308.51Z" fill="#455A64"/>
<path d="M284.518 228.418L284.412 266.495C284.403 269.603 286.916 272.13 290.024 272.139L467.677 272.635C470.785 272.643 473.312 270.131 473.32 267.023L473.427 228.946C473.435 225.838 470.923 223.311 467.815 223.302L290.161 222.806C287.053 222.798 284.527 225.31 284.518 228.418Z" fill="#FFCA1C"/>
<path d="M384.476 235.892L337.965 235.762L337.955 239.256L384.466 239.386L384.476 235.892Z" fill="#FAFAFA"/>
<path d="M419.39 255.694L337.91 255.466L337.9 258.96L419.381 259.188L419.39 255.694Z" fill="#FAFAFA"/>
<path d="M456.02 245.715L337.938 245.385L337.928 248.879L456.01 249.209L456.02 245.715Z" fill="#FAFAFA"/>
<path d="M314.625 248.996C315.723 248.481 316.646 247.656 317.282 246.623C317.918 245.591 318.239 244.395 318.205 243.182C318.247 242.384 318.124 241.587 317.844 240.838C317.565 240.09 317.134 239.407 316.58 238.832C316.025 238.257 315.358 237.802 314.621 237.496C313.883 237.189 313.09 237.038 312.291 237.05C311.493 237.063 310.705 237.24 309.977 237.57C309.25 237.9 308.598 238.376 308.062 238.968C307.526 239.561 307.118 240.257 306.862 241.014C306.607 241.771 306.51 242.572 306.577 243.368C306.575 244.595 306.937 245.794 307.618 246.814C308.299 247.834 309.267 248.628 310.401 249.096C308.57 249.354 306.857 250.151 305.48 251.385C304.103 252.62 303.124 254.235 302.668 256.027C304.805 258.347 307.699 259.829 310.83 260.209H314.41C317.576 259.729 320.458 258.109 322.515 255.655C322.021 253.881 321.004 252.297 319.597 251.109C318.19 249.921 316.457 249.185 314.625 248.996Z" fill="#FAFAFA"/>
<path d="M312.677 260.295C312.677 260.194 313.851 260.295 315.856 259.665C317.597 259.174 319.216 258.325 320.61 257.173C322.004 256.02 323.141 254.589 323.95 252.972C324.759 251.354 325.221 249.585 325.307 247.779C325.393 245.972 325.1 244.168 324.448 242.481C324.012 241.324 323.398 240.241 322.629 239.273C321.844 238.244 320.902 237.345 319.837 236.609C317.595 235.044 314.913 234.232 312.179 234.291C309.445 234.35 306.801 235.278 304.629 236.939C303.596 237.718 302.692 238.656 301.951 239.717C301.224 240.717 300.654 241.823 300.262 242.996C299.682 244.71 299.465 246.526 299.624 248.329C299.783 250.131 300.315 251.881 301.186 253.467C302.057 255.053 303.248 256.441 304.684 257.542C306.12 258.644 307.769 259.435 309.527 259.865C311.56 260.352 312.749 260.252 312.734 260.352C311.642 260.462 310.54 260.395 309.469 260.151C306.491 259.527 303.82 257.893 301.908 255.526C300.583 253.892 299.661 251.969 299.216 249.913C298.705 247.533 298.843 245.06 299.617 242.753C300.477 240.208 302.065 237.972 304.185 236.323C306.473 234.552 309.269 233.563 312.162 233.501C315.055 233.439 317.891 234.308 320.252 235.979C321.378 236.77 322.37 237.737 323.188 238.843C323.997 239.873 324.639 241.023 325.092 242.251C325.971 244.53 326.213 247.005 325.794 249.411C325.36 251.943 324.205 254.296 322.468 256.188C320.73 258.08 318.485 259.431 315.999 260.08C314.912 260.339 313.789 260.411 312.677 260.295Z" fill="#FAFAFA"/>
<path d="M367.322 492.121C367.206 492.909 366.81 493.629 366.206 494.15C365.603 494.671 364.833 494.957 364.036 494.957C363.239 494.957 362.469 494.671 361.865 494.15C361.262 493.629 360.866 492.909 360.749 492.121C360.866 491.333 361.262 490.613 361.865 490.092C362.469 489.572 363.239 489.285 364.036 489.285C364.833 489.285 365.603 489.572 366.206 490.092C366.81 490.613 367.206 491.333 367.322 492.121Z" fill="#455A64"/>
<path d="M377.518 492.164C377.612 492.835 377.498 493.518 377.192 494.122C376.887 494.726 376.404 495.223 375.808 495.545C375.212 495.867 374.532 495.999 373.859 495.924C373.186 495.849 372.553 495.57 372.042 495.125C371.532 494.679 371.171 494.089 371.006 493.432C370.841 492.775 370.88 492.084 371.119 491.45C371.358 490.816 371.785 490.271 372.343 489.887C372.9 489.503 373.562 489.298 374.239 489.3C375.054 489.245 375.857 489.516 376.472 490.053C377.087 490.59 377.463 491.349 377.518 492.164Z" fill="#455A64"/>
<path d="M387.7 492.207C387.793 492.878 387.679 493.562 387.373 494.167C387.066 494.771 386.582 495.268 385.986 495.589C385.389 495.911 384.709 496.043 384.035 495.966C383.362 495.89 382.728 495.61 382.218 495.163C381.709 494.716 381.348 494.124 381.185 493.466C381.021 492.808 381.063 492.116 381.304 491.483C381.546 490.849 381.975 490.305 382.534 489.922C383.094 489.54 383.757 489.338 384.435 489.343C385.247 489.292 386.046 489.565 386.658 490.101C387.27 490.638 387.644 491.395 387.7 492.207Z" fill="#455A64"/>
<path d="M311.002 387.327C311.632 387.413 311.975 387.413 311.975 387.471C311.975 387.528 312.29 387.471 312.878 387.342L311.002 387.327Z" fill="#455A64"/>
<path d="M322.271 366.592C321.516 365.553 320.598 364.644 319.551 363.9C317.357 362.281 314.702 361.408 311.975 361.408C309.249 361.408 306.594 362.281 304.4 363.9C303.349 364.644 302.425 365.553 301.665 366.592C300.915 367.577 300.325 368.674 299.918 369.843C299.171 371.863 298.942 374.038 299.252 376.169C299.562 378.3 300.402 380.32 301.694 382.043C301.851 382.244 302.023 382.43 302.18 382.616C302.711 380.907 303.727 379.389 305.105 378.247C306.483 377.105 308.164 376.389 309.942 376.186C308.819 375.696 307.867 374.883 307.206 373.85C306.546 372.818 306.207 371.612 306.233 370.387C306.177 369.589 306.286 368.788 306.553 368.034C306.819 367.28 307.238 366.589 307.784 366.004C308.329 365.419 308.989 364.953 309.723 364.634C310.456 364.315 311.247 364.15 312.047 364.15C312.847 364.15 313.638 364.315 314.371 364.634C315.105 364.953 315.765 365.419 316.31 366.004C316.855 366.589 317.275 367.28 317.541 368.034C317.808 368.788 317.917 369.589 317.861 370.387C317.87 371.598 317.525 372.785 316.869 373.802C316.213 374.82 315.273 375.624 314.166 376.115C315.924 376.324 317.582 377.042 318.935 378.182C320.289 379.322 321.28 380.834 321.785 382.53L322.257 381.972C323.543 380.245 324.379 378.226 324.689 376.096C324.999 373.966 324.773 371.792 324.033 369.771C323.608 368.629 323.014 367.558 322.271 366.592Z" fill="#FAFAFA"/>
<path d="M324.749 369.614C324.325 368.369 323.706 367.199 322.916 366.148C322.116 365.05 321.15 364.084 320.052 363.284C317.72 361.554 314.893 360.62 311.99 360.62C309.086 360.62 306.26 361.554 303.928 363.284C301.758 364.883 300.113 367.091 299.202 369.628C298.385 371.923 298.197 374.395 298.658 376.788C299.055 378.873 299.938 380.836 301.236 382.516C303.105 384.927 305.751 386.617 308.725 387.299C309.519 387.485 310.33 387.586 311.145 387.599C311.425 387.637 311.709 387.637 311.99 387.599C311.99 387.599 311.646 387.599 311.016 387.456H312.892C312.305 387.528 311.99 387.528 311.99 387.585C312.27 387.623 312.554 387.623 312.835 387.585C313.65 387.571 314.461 387.47 315.255 387.284C318.224 386.601 320.865 384.911 322.73 382.502C324.038 380.826 324.926 378.862 325.322 376.774C325.781 374.379 325.583 371.905 324.749 369.614ZM324.62 376.616C324.272 378.595 323.462 380.464 322.257 382.072L321.785 382.63C321.28 380.934 320.289 379.423 318.936 378.283C317.582 377.143 315.924 376.424 314.166 376.215C315.273 375.724 316.213 374.92 316.869 373.903C317.525 372.885 317.87 371.698 317.861 370.487C317.917 369.689 317.808 368.888 317.541 368.134C317.275 367.381 316.856 366.69 316.31 366.105C315.765 365.52 315.105 365.053 314.372 364.734C313.638 364.415 312.847 364.25 312.047 364.25C311.247 364.25 310.456 364.415 309.723 364.734C308.989 365.053 308.329 365.52 307.784 366.105C307.239 366.69 306.82 367.381 306.553 368.134C306.286 368.888 306.177 369.689 306.233 370.487C306.207 371.712 306.546 372.918 307.206 373.95C307.867 374.983 308.819 375.796 309.942 376.287C308.164 376.49 306.483 377.206 305.105 378.347C303.727 379.489 302.711 381.007 302.181 382.716C302.023 382.53 301.851 382.344 301.694 382.144C300.402 380.42 299.563 378.401 299.252 376.269C298.942 374.138 299.171 371.963 299.918 369.943C300.325 368.774 300.915 367.677 301.665 366.692C302.425 365.653 303.349 364.744 304.4 364C306.594 362.381 309.249 361.508 311.976 361.508C314.702 361.508 317.357 362.381 319.551 364C320.598 364.744 321.517 365.653 322.272 366.692C323.021 367.68 323.615 368.776 324.033 369.943C324.813 372.077 325.016 374.379 324.62 376.616Z" fill="#455A64"/>
<path d="M466.689 399.399C466.689 399.399 467.104 399.399 467.877 399.242C469.025 399.004 470.082 398.449 470.927 397.638C471.608 396.979 472.133 396.178 472.465 395.291C472.797 394.404 472.928 393.455 472.846 392.511C472.846 390.234 472.846 387.628 472.846 384.678C472.846 378.778 472.846 371.575 472.775 363.198C472.775 361.107 472.775 358.902 472.775 356.711C472.833 355.598 472.584 354.49 472.056 353.508C471.529 352.526 470.742 351.707 469.782 351.141C467.806 349.895 465.228 350.439 462.751 350.325H455.047L290.367 350.453C289.427 350.45 288.5 350.673 287.665 351.105C286.829 351.536 286.111 352.162 285.569 352.931C285.021 353.686 284.671 354.568 284.553 355.494C284.48 356.447 284.456 357.403 284.481 358.358V393.37C284.522 394.257 284.763 395.122 285.184 395.903C285.606 396.684 286.197 397.36 286.915 397.881C287.624 398.399 288.442 398.747 289.307 398.898C290.211 398.99 291.12 399.024 292.028 398.998H324.477L398.497 399.084L448.388 399.227L461.963 399.299H465.486C466.288 399.299 466.689 399.299 466.689 399.299H465.486H461.963H448.388L398.497 399.428L324.477 399.528H292.028C291.071 399.568 290.114 399.529 289.164 399.413C288.174 399.253 287.237 398.86 286.429 398.268C285.609 397.679 284.934 396.912 284.455 396.024C283.976 395.135 283.706 394.15 283.665 393.141C283.665 385.504 283.665 377.79 283.665 370V358.172C283.665 357.169 283.665 356.224 283.665 355.136C283.809 354.078 284.207 353.071 284.825 352.2C285.448 351.324 286.27 350.608 287.223 350.11C288.177 349.613 289.234 349.347 290.309 349.336L454.989 349.465H466.445C467.701 349.432 468.941 349.749 470.025 350.382C471.06 350.998 471.907 351.885 472.475 352.948C473.043 354.01 473.31 355.208 473.247 356.411C473.247 358.644 473.247 360.807 473.247 362.897C473.247 371.26 473.247 378.463 473.176 384.377C473.176 387.327 473.176 389.934 473.176 392.211C473.242 393.182 473.091 394.157 472.734 395.063C472.378 395.97 471.824 396.785 471.114 397.452C470.235 398.266 469.142 398.813 467.963 399.027C467.559 399.213 467.13 399.339 466.689 399.399Z" fill="#455A64"/>
<path d="M384.005 362.883H337.494V366.377H384.005V362.883Z" fill="#455A64"/>
<path d="M418.974 382.602H337.494V386.096H418.974V382.602Z" fill="#455A64"/>
<path d="M455.576 372.506H337.494V376H455.576V372.506Z" fill="#455A64"/>
<path d="M311.002 450.049C311.632 450.121 311.975 450.135 311.975 450.192C311.975 450.249 312.29 450.121 312.878 450.063L311.002 450.049Z" fill="#455A64"/>
<path d="M322.271 429.342C321.513 428.302 320.595 427.389 319.551 426.636C317.349 425.036 314.697 424.174 311.975 424.174C309.254 424.174 306.602 425.036 304.4 426.636C303.352 427.388 302.429 428.302 301.665 429.342C300.915 430.327 300.325 431.424 299.918 432.593C299.171 434.613 298.942 436.788 299.252 438.919C299.562 441.051 300.402 443.07 301.694 444.793C301.851 444.994 302.023 445.18 302.18 445.366C302.711 443.657 303.727 442.139 305.105 440.997C306.483 439.856 308.164 439.14 309.942 438.937C308.831 438.449 307.888 437.647 307.229 436.629C306.569 435.611 306.223 434.421 306.233 433.209C306.177 432.411 306.286 431.61 306.553 430.856C306.819 430.102 307.238 429.411 307.784 428.826C308.329 428.241 308.989 427.775 309.723 427.456C310.456 427.137 311.247 426.972 312.047 426.972C312.847 426.972 313.638 427.137 314.371 427.456C315.105 427.775 315.765 428.241 316.31 428.826C316.855 429.411 317.275 430.102 317.541 430.856C317.808 431.61 317.917 432.411 317.861 433.209C317.87 434.419 317.525 435.607 316.869 436.624C316.213 437.642 315.273 438.446 314.166 438.937C315.924 439.144 317.583 439.862 318.937 441.002C320.291 442.142 321.281 443.655 321.785 445.352C321.942 445.166 322.1 444.994 322.257 444.779C323.465 443.178 324.274 441.313 324.62 439.338C325.029 437.077 324.826 434.749 324.033 432.593C323.614 431.426 323.02 430.33 322.271 429.342Z" fill="#FAFAFA"/>
<path d="M324.749 432.321C324.325 431.08 323.706 429.916 322.916 428.87C322.118 427.77 321.152 426.803 320.052 426.006C317.716 424.284 314.891 423.356 311.99 423.356C309.088 423.356 306.263 424.284 303.928 426.006C302.824 426.799 301.857 427.766 301.064 428.87C300.274 429.918 299.651 431.082 299.216 432.321C298.401 434.617 298.213 437.088 298.672 439.481C299.064 441.568 299.947 443.531 301.25 445.209C303.115 447.628 305.762 449.323 308.739 450.006C309.533 450.192 310.344 450.293 311.159 450.307C311.44 450.344 311.724 450.344 312.004 450.307C312.004 450.307 311.66 450.235 311.03 450.164H312.906C312.319 450.164 312.004 450.164 312.004 450.292C312.284 450.33 312.569 450.33 312.849 450.292C313.664 450.279 314.475 450.178 315.269 449.992C317.767 449.39 320.039 448.083 321.816 446.228C323.593 444.372 324.8 442.045 325.293 439.524C325.766 437.118 325.578 434.628 324.749 432.321ZM324.62 439.338C324.275 441.313 323.465 443.178 322.257 444.779C322.1 444.994 321.942 445.166 321.785 445.352C321.281 443.655 320.291 442.142 318.937 441.002C317.583 439.862 315.924 439.144 314.166 438.937C315.273 438.446 316.213 437.642 316.869 436.624C317.525 435.607 317.87 434.42 317.861 433.209C317.917 432.411 317.808 431.61 317.541 430.856C317.275 430.102 316.855 429.411 316.31 428.826C315.765 428.241 315.105 427.775 314.371 427.456C313.638 427.137 312.847 426.972 312.047 426.972C311.247 426.972 310.456 427.137 309.723 427.456C308.989 427.775 308.329 428.241 307.784 428.826C307.239 429.411 306.819 430.102 306.553 430.856C306.286 431.61 306.177 432.411 306.233 433.209C306.223 434.422 306.569 435.611 307.229 436.629C307.888 437.647 308.831 438.449 309.942 438.937C308.161 439.133 306.475 439.845 305.092 440.984C303.708 442.124 302.686 443.641 302.152 445.352C301.994 445.166 301.823 444.98 301.665 444.779C300.373 443.056 299.534 441.036 299.224 438.905C298.913 436.774 299.142 434.599 299.889 432.579C300.297 431.41 300.886 430.313 301.636 429.328C302.4 428.288 303.323 427.374 304.371 426.621C306.573 425.022 309.225 424.16 311.947 424.16C314.668 424.16 317.32 425.022 319.522 426.621C321.567 428.126 323.125 430.197 324.004 432.579C324.81 434.736 325.022 437.07 324.62 439.338Z" fill="#455A64"/>
<path d="M466.689 462.121C466.689 462.121 467.104 462.121 467.877 461.963C469.384 461.641 470.721 460.778 471.636 459.539C472.551 458.299 472.982 456.768 472.846 455.233C472.846 452.956 472.846 450.35 472.846 447.4C472.846 441.5 472.846 434.297 472.775 425.92C472.775 423.829 472.775 421.624 472.775 419.433C472.828 418.308 472.569 417.191 472.025 416.205C471.482 415.219 470.675 414.403 469.696 413.848C467.72 412.602 465.142 413.146 462.665 413.032H454.961L290.281 413.146C289.34 413.149 288.414 413.377 287.58 413.81C286.745 414.244 286.027 414.87 285.483 415.638C284.935 416.394 284.585 417.275 284.467 418.201C284.394 419.154 284.37 420.11 284.395 421.065V456.092C284.437 456.976 284.677 457.84 285.099 458.618C285.52 459.397 286.112 460.07 286.83 460.589C287.537 461.111 288.355 461.464 289.221 461.62C290.125 461.714 291.034 461.743 291.942 461.705H324.391L398.411 461.791L448.302 461.92L461.877 462.006H465.4H466.603C466.603 462.006 466.202 462.006 465.4 462.006H461.877L448.302 462.092L398.411 462.221L324.391 462.307H292.028C291.071 462.339 290.114 462.301 289.164 462.192C288.173 462.027 287.236 461.629 286.429 461.032C285.609 460.447 284.934 459.682 284.455 458.796C283.976 457.91 283.706 456.926 283.665 455.92C283.665 448.331 283.665 440.617 283.665 432.779V420.951C283.665 419.948 283.665 419.003 283.665 417.915C283.809 416.857 284.207 415.85 284.825 414.979C285.446 414.101 286.267 413.382 287.221 412.884C288.175 412.386 289.233 412.123 290.309 412.115L454.989 412.244H466.445C467.701 412.21 468.941 412.528 470.025 413.161C471.061 413.776 471.909 414.663 472.477 415.725C473.045 416.788 473.312 417.986 473.247 419.189C473.247 421.423 473.247 423.586 473.247 425.676C473.247 434.039 473.247 441.242 473.176 447.156C473.176 450.106 473.176 452.713 473.176 454.989C473.241 455.961 473.09 456.935 472.733 457.841C472.376 458.748 471.823 459.564 471.114 460.231C470.238 461.047 469.143 461.59 467.963 461.791C467.558 461.966 467.128 462.077 466.689 462.121Z" fill="#455A64"/>
<path d="M384.005 425.605H337.494V429.099H384.005V425.605Z" fill="#455A64"/>
<path d="M418.974 445.309H337.494V448.803H418.974V445.309Z" fill="#455A64"/>
<path d="M455.576 435.213H337.494V438.707H455.576V435.213Z" fill="#455A64"/>
<path d="M467.247 236.423C472.514 236.423 476.784 232.153 476.784 226.886C476.784 221.619 472.514 217.349 467.247 217.349C461.98 217.349 457.71 221.619 457.71 226.886C457.71 232.153 461.98 236.423 467.247 236.423Z" fill="#263238"/>
<path d="M462.565 226.113L466.574 229.636L471.916 224.137" stroke="#FAFAFA" stroke-linecap="round" stroke-linejoin="round"/>
<path d="M202.943 651.517L200.609 665.078L221.516 666.61L221.588 653.278L202.943 651.517Z" fill="#FFCA1C"/>
<path d="M212.365 651.703C212.309 655.846 211.829 659.973 210.933 664.018C210.853 661.944 210.978 659.867 211.306 657.818C211.455 655.749 211.81 653.701 212.365 651.703Z" fill="#263238"/>
<path d="M221.516 665.135C220.504 665.152 219.493 665.075 218.495 664.906L211.234 664.104C208.37 663.775 205.821 663.431 203.974 663.116C202.966 663 201.972 662.78 201.01 662.457C202.022 662.422 203.035 662.494 204.031 662.672L211.306 663.488C214.17 663.804 216.705 664.162 218.552 664.477C219.56 664.592 220.554 664.813 221.516 665.135Z" fill="#263238"/>
<path d="M278.409 658.92V646.748L255.64 646.534L255.397 664.333L256.829 664.434C263.115 664.835 288.806 666.066 293.016 664.835C297.727 663.46 278.409 658.92 278.409 658.92Z" fill="#FFCA1C"/>
<g opacity="0.38">
<path opacity="0.38" d="M263.688 664.233C263.368 662.308 262.348 660.569 260.824 659.35C259.33 658.134 257.435 657.521 255.512 657.632V664.004L263.688 664.233Z" fill="black"/>
</g>
<g opacity="0.38">
<path opacity="0.38" d="M287.832 661.469C287.832 661.469 294.591 663.489 293.732 664.605C292.873 665.722 266.868 665.45 255.412 664.333V663.818L285.741 664.376C285.741 664.376 286.515 661.584 287.832 661.469Z" fill="black"/>
</g>
<path d="M255.111 663.804H255.498L256.615 663.89L260.753 664.104C264.261 664.262 269.087 664.419 274.429 664.477C279.77 664.534 284.596 664.477 288.104 664.405L292.243 664.276H293.374C293.502 664.295 293.632 664.295 293.761 664.276H292.243H288.104C284.596 664.276 279.77 664.276 274.429 664.276C269.087 664.276 264.261 664.09 260.767 663.975L256.629 663.847H255.498L255.111 663.804Z" fill="#263238"/>
<path d="M285.784 664.734C285.975 664.052 286.244 663.393 286.586 662.773C287.007 662.199 287.487 661.671 288.018 661.197C287.309 661.458 286.719 661.967 286.357 662.629C285.915 663.238 285.712 663.986 285.784 664.734Z" fill="#263238"/>
<path d="M279.097 661.255C279.097 661.255 279.483 660.911 279.827 660.395C280.072 660.101 280.243 659.752 280.328 659.379C280.328 659.379 279.927 659.722 279.598 660.238C279.269 660.753 279.039 661.212 279.097 661.255Z" fill="#263238"/>
<path d="M277.264 660.267C277.264 660.267 277.679 660.08 278.08 659.737C278.481 659.393 278.753 659.064 278.696 659.006C278.639 658.949 278.295 659.178 277.894 659.536C277.493 659.894 277.221 660.152 277.264 660.267Z" fill="#263238"/>
<path d="M276.118 658.104C276.902 658.276 277.712 658.276 278.496 658.104C278.496 658.018 277.966 657.947 277.321 657.932C276.913 657.903 276.502 657.962 276.118 658.104Z" fill="#263238"/>
<path d="M275.731 656.586C276.127 656.847 276.59 656.986 277.063 656.987C277.547 657.082 278.048 657.022 278.495 656.815C278.052 656.732 277.6 656.698 277.149 656.715C276.682 656.623 276.207 656.58 275.731 656.586Z" fill="#263238"/>
<path d="M279.899 659.278C280.373 659.354 280.856 659.354 281.331 659.278C281.859 659.211 282.381 659.101 282.892 658.949C283.2 658.865 283.498 658.744 283.779 658.591C283.869 658.543 283.948 658.478 284.012 658.4C284.076 658.321 284.123 658.23 284.152 658.133C284.173 658.025 284.165 657.913 284.127 657.809C284.089 657.706 284.023 657.615 283.937 657.546C283.382 657.261 282.745 657.181 282.138 657.32C281.53 657.459 280.991 657.808 280.615 658.305C280.379 658.582 280.213 658.911 280.128 659.264C280.128 659.522 280.128 659.665 280.128 659.665C280.273 659.212 280.501 658.789 280.801 658.419C281.136 658.037 281.573 657.759 282.061 657.617C282.64 657.435 283.267 657.486 283.808 657.761C284.037 657.932 283.937 658.204 283.679 658.362C283.416 658.497 283.143 658.612 282.863 658.706C282.368 658.871 281.86 658.995 281.345 659.078C280.457 659.235 279.899 659.236 279.899 659.278Z" fill="#263238"/>
<path d="M280.271 659.35C280.271 659.35 280.514 659.006 280.457 658.348C280.409 657.963 280.271 657.596 280.056 657.274C279.939 657.053 279.767 656.867 279.556 656.734C279.345 656.601 279.102 656.525 278.853 656.515C278.779 656.528 278.708 656.557 278.644 656.598C278.581 656.64 278.526 656.693 278.484 656.756C278.441 656.818 278.411 656.889 278.396 656.963C278.381 657.037 278.381 657.113 278.395 657.188C278.426 657.418 278.509 657.639 278.638 657.832C278.828 658.158 279.053 658.46 279.311 658.734C279.539 658.995 279.823 659.201 280.142 659.336C280.142 659.336 279.856 659.064 279.455 658.605C279.233 658.325 279.032 658.028 278.853 657.718C278.653 657.403 278.524 656.844 278.853 656.787C279.183 656.73 279.584 657.116 279.813 657.417C280.015 657.703 280.152 658.031 280.214 658.376C280.263 658.698 280.282 659.024 280.271 659.35Z" fill="#263238"/>
<path d="M255.64 657.574C255.64 657.574 256.285 657.574 257.316 657.646C258.654 657.82 259.917 658.36 260.967 659.207C262.011 660.063 262.795 661.194 263.23 662.472C263.397 663.004 263.535 663.544 263.645 664.09C263.67 663.938 263.67 663.784 263.645 663.632C263.605 663.214 263.524 662.802 263.402 662.4C262.998 661.063 262.206 659.877 261.125 658.992C260.04 658.108 258.711 657.573 257.316 657.46C256.902 657.415 256.484 657.415 256.07 657.46C255.921 657.472 255.775 657.511 255.64 657.574Z" fill="#263238"/>
<path d="M258.089 648.123C257.919 649.673 257.837 651.232 257.846 652.792C257.758 654.351 257.758 655.915 257.846 657.474C258.016 655.924 258.097 654.365 258.089 652.806C258.176 651.246 258.176 649.683 258.089 648.123Z" fill="#263238"/>
<path d="M266.567 662.042C267.654 662.305 268.771 662.426 269.889 662.4C271.007 662.471 272.128 662.394 273.226 662.171C273.226 662.085 271.794 662.171 269.903 662.171C268.013 662.171 266.581 661.956 266.567 662.042Z" fill="#263238"/>
<path d="M262.056 661.985C262.056 661.985 262.17 662.3 262.314 662.644C262.457 662.987 262.543 663.288 262.629 663.288C262.715 663.288 262.743 662.93 262.629 662.529C262.514 662.128 262.156 661.928 262.056 661.985Z" fill="#263238"/>
<path d="M260.452 659.88C260.452 659.88 260.538 660.166 260.767 660.41C260.996 660.653 261.24 660.796 261.297 660.753C261.354 660.711 261.197 660.453 260.968 660.209C260.739 659.966 260.495 659.823 260.452 659.88Z" fill="#263238"/>
<path d="M258.046 658.892C258.046 658.963 258.361 658.963 258.705 659.092C259.049 659.221 259.278 659.393 259.335 659.336C259.392 659.278 259.206 658.978 258.791 658.835C258.376 658.691 258.032 658.82 258.046 658.892Z" fill="#263238"/>
<path d="M256.328 658.419C256.328 658.419 256.428 658.62 256.614 658.691C256.801 658.763 256.972 658.691 257.001 658.691C257.03 658.691 256.901 658.505 256.715 658.434C256.528 658.362 256.328 658.348 256.328 658.419Z" fill="#263238"/>
<path d="M243.87 289.35C244.042 285.784 244.428 281.746 244.428 281.746C244.428 281.746 253.249 280.787 253.779 271.722C254.309 262.657 253.779 241.65 253.779 241.65L237.712 233.416L220.027 247.364L222.705 292.944L238.972 293.975C239.6 294.002 240.226 293.903 240.815 293.683C241.403 293.464 241.942 293.129 242.398 292.697C242.855 292.266 243.22 291.748 243.473 291.173C243.726 290.598 243.861 289.978 243.87 289.35Z" fill="#FFBE9D"/>
<path d="M245.459 264.462C245.459 264.462 245.459 264.619 245.316 264.848C245.195 264.996 245.042 265.112 244.868 265.19C244.693 265.267 244.504 265.302 244.314 265.292C243.283 265.292 242.294 264.118 241.936 262.729C241.773 262.066 241.773 261.373 241.936 260.71C241.956 260.408 242.055 260.116 242.224 259.865C242.392 259.613 242.624 259.411 242.896 259.278C243.002 259.232 243.117 259.208 243.232 259.208C243.348 259.208 243.463 259.232 243.569 259.278C243.732 259.351 243.861 259.484 243.927 259.65C244.056 259.908 243.927 260.08 243.927 260.066C243.927 260.051 243.927 259.908 243.755 259.75C243.673 259.632 243.55 259.548 243.409 259.516C243.269 259.484 243.121 259.506 242.996 259.579C242.805 259.704 242.647 259.874 242.535 260.073C242.423 260.272 242.36 260.496 242.352 260.724C242.241 261.323 242.265 261.94 242.423 262.529C242.738 263.774 243.598 264.777 244.357 264.877C244.509 264.897 244.663 264.886 244.811 264.844C244.959 264.802 245.097 264.73 245.216 264.634C245.373 264.576 245.431 264.447 245.459 264.462Z" fill="#EB996E"/>
<path d="M245.402 270.09C245.516 269.76 245.588 269.402 245.688 269.058C245.788 268.715 245.817 268.572 245.903 268.314C246.056 267.564 246.138 266.802 246.146 266.037C245.362 266.341 244.506 266.408 243.683 266.23C242.861 266.052 242.109 265.636 241.521 265.035C240.929 264.407 240.515 263.633 240.324 262.792C240.133 261.951 240.17 261.073 240.433 260.252C240.809 259.351 241.371 258.541 242.081 257.872C242.792 257.203 243.635 256.692 244.557 256.371C246.333 255.626 248.237 255.254 249.984 254.423C253.679 252.676 256.228 249.025 257.975 245.201C259.192 242.524 260.108 239.473 259.278 236.609C258.046 232.414 253.55 230.337 249.526 229.177C243.34 227.43 236.638 226.657 230.595 228.877C224.552 231.096 217.292 235.02 217.292 241.693C213.726 241.392 211.693 244.557 210.275 248.395C209.577 250.798 209.051 253.248 208.7 255.727" fill="#263238"/>
<path d="M222.16 283.536C217.702 280.461 214.118 276.282 211.756 271.408C209.394 266.534 208.336 261.131 208.685 255.727C209.602 236.595 245.402 270.047 245.402 270.047C245.402 270.047 238.543 292.586 222.891 283.493" fill="#263238"/>
<path d="M216.848 264.462C216.747 264.376 217.463 263.703 218.051 262.314C218.451 261.431 218.662 260.474 218.67 259.505C218.677 258.536 218.481 257.576 218.093 256.688C217.706 255.799 217.136 255.002 216.42 254.348C215.705 253.694 214.86 253.198 213.941 252.891C212.509 252.376 211.535 252.447 211.535 252.318C212.374 252.06 213.275 252.085 214.098 252.39C215.119 252.678 216.066 253.184 216.872 253.874C217.678 254.564 218.325 255.421 218.767 256.385C219.185 257.363 219.38 258.422 219.338 259.484C219.296 260.547 219.017 261.587 218.523 262.529C217.764 263.975 216.891 264.519 216.848 264.462Z" fill="#FFCA1C"/>
<path d="M209.473 252.748C209.149 252.789 208.821 252.719 208.542 252.548C207.738 252.153 207.077 251.517 206.652 250.729C206.058 249.548 205.843 248.213 206.036 246.905C206.203 245.325 206.69 243.795 207.468 242.409C208.264 240.989 209.515 239.879 211.02 239.259C212.268 238.749 213.666 238.749 214.915 239.259C215.74 239.603 216.44 240.193 216.919 240.948C217.22 241.492 217.263 241.85 217.22 241.85C216.637 240.897 215.757 240.162 214.714 239.76C213.591 239.371 212.361 239.428 211.277 239.917C209.94 240.503 208.829 241.509 208.113 242.781C206.58 245.516 206.151 248.652 207.082 250.471C207.593 251.483 208.438 252.287 209.473 252.748Z" fill="#263238"/>
<path d="M372.076 259.192C371.432 258.533 369.857 258.848 369.857 258.848C370.008 257.928 370.008 256.99 369.857 256.07C369.57 255.168 367.551 255.34 367.551 255.34C367.456 254.584 367.456 253.819 367.551 253.063C367.562 252.897 367.522 252.733 367.438 252.59C367.354 252.447 367.229 252.332 367.079 252.261C366.124 251.875 365.101 251.69 364.072 251.717C362.826 250.829 367.823 243.841 369.685 241.607C371.547 239.373 371.203 237.64 369.556 237.64C368.425 237.64 362.597 244.357 360.807 246.605C359.017 248.853 354.262 255.125 354.105 250.127C353.947 245.13 351.928 241.335 350.668 240.691C349.408 240.046 348.062 241.564 348.764 242.953C349.361 244.531 349.737 246.184 349.88 247.865C350.041 249.217 349.978 250.586 349.694 251.917C349.172 254.358 348.454 256.752 347.546 259.077L347.417 259.006C347.417 259.006 312.52 292.472 309.999 294.806C307.737 296.954 262.385 292.257 253.306 291.297C250.209 290.857 247.084 290.646 243.955 290.667C240.017 290.839 239.316 291.398 235.363 291.441C225.979 291.473 216.612 292.258 207.354 293.789C198.289 295.321 193.306 302.381 190.513 311.159C181.334 339.799 156.532 407.103 152.823 445.195C150.058 450.215 147.558 455.378 145.334 460.66C142.77 467.663 143.4 467.906 144.26 468.064C146.579 468.493 149.243 455.934 150.245 458.956C151.248 461.978 145.205 473.949 147.653 474.293C150.833 474.751 153.381 461.548 153.682 460.445C153.983 459.343 155.587 459.744 155.257 460.717C154.799 462.149 150.303 477.042 153.424 477.529C155.157 477.787 155.343 474.665 155.343 474.665C155.343 474.665 158.522 460.345 159.997 460.674C161.472 461.004 159.911 469.395 159.167 472.202C158.422 475.009 159.467 476.498 160.957 475.753C161.988 475.281 164.437 466.732 165.11 463.939C165.783 461.147 167.444 453.457 169.706 457.925C171.969 462.393 175.434 464.97 176.866 465.085C177.196 465.07 177.512 464.952 177.77 464.746C178.028 464.54 178.215 464.258 178.302 463.94C178.39 463.621 178.374 463.284 178.257 462.975C178.141 462.666 177.93 462.402 177.654 462.221C176.442 461.039 175.401 459.695 174.561 458.226C173.841 457.069 173.318 455.801 173.014 454.474C172.38 451.82 172.011 449.11 171.912 446.383L171.639 444.736C175.219 427.008 187.391 366.578 202.184 333.327L206.48 354.291L209.129 363.585L192.847 403.824L262.256 402.908L251.903 363.041L264.476 321.513C278.094 321.813 313.035 322.329 318.892 319.694C326.21 316.429 364.115 268.658 364.115 268.658C366.61 266.74 369 264.69 371.275 262.514C371.275 262.514 373.466 260.624 372.076 259.192Z" fill="#FFBE9D"/>
<path d="M189.826 374.239C191.831 367.365 202.17 333.37 202.17 333.37C202.17 333.37 207.253 361.079 205.922 364.415C204.691 367.278 203.23 370.037 201.554 372.664C189.826 390.535 191.358 399.471 191.358 399.471L262.256 397.308C262.428 387.399 256.528 364.372 255.326 360.664C254.123 356.955 258.19 344.912 258.19 344.912C258.19 344.912 266.209 336.778 265.894 332.596C265.727 328.84 265.248 325.104 264.462 321.427L316.973 322.429L311.102 293.889L260.466 290.18L243.626 288.605C235.149 295.765 222.447 288.605 222.447 288.605C206.294 290.18 203.931 292.772 197.301 299.403C189.425 307.25 168.145 367.294 168.145 367.294L189.826 374.239Z" fill="#FFCA1C"/>
<path d="M231.755 367.322C230.521 367.537 229.266 367.6 228.017 367.508C225.697 367.508 222.518 367.351 219.01 367.007C215.502 366.664 212.351 366.148 210.089 365.704C208.846 365.55 207.629 365.237 206.466 364.773C207.711 364.768 208.953 364.888 210.174 365.131C212.466 365.418 215.602 365.819 219.096 366.177C222.59 366.535 225.74 366.764 228.032 366.921C229.283 366.927 230.531 367.062 231.755 367.322Z" fill="#263238"/>
<path d="M236.595 361.294C235.367 361.894 234.068 362.337 232.729 362.611C229.545 363.454 226.305 364.071 223.034 364.458C219.765 364.851 216.473 365.009 213.182 364.931C211.816 364.972 210.451 364.847 209.115 364.559C210.462 364.367 211.823 364.295 213.182 364.344C215.688 364.258 219.139 364.086 222.948 363.628C226.757 363.169 230.108 362.554 232.6 362.038C233.907 361.672 235.244 361.423 236.595 361.294Z" fill="#263238"/>
<path d="M260.452 334.401C260.436 335.619 260.273 336.831 259.965 338.009C259.55 340.229 258.906 343.265 258.089 346.601C257.273 349.938 256.443 352.931 255.784 355.093C255.509 356.28 255.091 357.429 254.538 358.516C254.625 357.3 254.85 356.099 255.211 354.936C255.812 352.444 256.514 349.58 257.273 346.415C258.032 343.25 258.777 340.386 259.392 337.823C259.616 336.646 259.972 335.498 260.452 334.401Z" fill="#263238"/>
<path d="M190.885 399.958L261.769 397.795L292.615 518.255L286.887 656.429H249.368L254.051 521.248L226.628 437.333L230.795 657.861L192.905 658.419L189.024 451.366C188.866 445.51 186.933 432.278 187.592 426.464L190.885 399.958Z" fill="#455A64"/>
<path d="M236.08 439.037C234.916 439.119 233.746 439.052 232.6 438.836C230.466 438.579 227.531 438.135 224.323 437.49C221.115 436.846 218.223 436.058 216.161 435.528C215.018 435.284 213.911 434.894 212.867 434.369C212.867 434.139 218.079 435.385 224.48 436.674C230.882 437.963 236.108 438.793 236.08 439.037Z" fill="#263238"/>
<path d="M286.586 648.853C286.586 649.083 278.094 649.269 267.612 649.269C257.13 649.269 249.669 648.939 249.669 648.71C249.669 648.481 257.13 648.438 267.612 648.438C278.094 648.438 286.586 648.696 286.586 648.853Z" fill="#263238"/>
<path d="M230.265 649.269C230.265 649.498 222.017 649.684 211.85 649.684C201.683 649.684 193.449 649.498 193.449 649.269C193.449 649.04 201.683 648.854 211.85 648.854C222.017 648.854 230.265 649.04 230.265 649.269Z" fill="#263238"/>
<path d="M225.64 649.269C225.411 649.269 224.409 601.598 223.406 542.785C222.404 483.973 221.788 436.302 221.974 436.287C222.161 436.273 223.249 484.016 224.251 542.728C225.254 601.44 225.87 649.255 225.64 649.269Z" fill="#263238"/>
<path d="M281.545 648.854C281.53 648.634 281.53 648.414 281.545 648.195C281.545 647.722 281.545 647.092 281.545 646.276C281.545 644.558 281.66 642.08 281.76 638.915C281.975 632.486 282.304 623.249 282.691 611.851C283.565 588.939 284.782 557.435 286.114 522.551C286.114 522.222 286.114 521.907 286.114 521.606V521.721C277.708 488.083 270.118 457.667 264.634 435.614L258.261 409.552C257.531 406.502 256.958 404.125 256.571 402.392C256.39 401.619 256.247 401.003 256.142 400.545C256.088 400.338 256.05 400.127 256.027 399.915C256.118 400.111 256.185 400.318 256.228 400.53C256.342 400.974 256.514 401.576 256.729 402.349C257.159 404.01 257.789 406.387 258.576 409.423C260.166 415.595 262.443 424.473 265.249 435.428C270.82 457.467 278.495 487.854 287.001 521.477V521.606C287.001 521.892 287.001 522.222 287.001 522.537C285.569 557.392 284.281 588.939 283.335 611.822C282.834 623.278 282.419 632.457 282.133 638.887C281.975 642.052 281.846 644.515 281.76 646.247C281.76 647.049 281.674 647.679 281.646 648.152C281.636 648.389 281.603 648.624 281.545 648.854Z" fill="#263238"/>
<path d="M269.316 518.799C266.619 519.682 263.842 520.301 261.025 520.647C257.588 521.234 254.609 521.635 253.306 521.721V521.391C253.736 521.506 253.965 521.606 253.951 521.663C253.936 521.721 253.693 521.663 253.249 521.663H252.29L253.249 521.377C254.495 521.005 257.445 520.403 260.896 519.802C263.663 519.193 266.483 518.857 269.316 518.799Z" fill="#263238"/>
<path d="M268.6 523.396C266.108 523.496 263.612 523.381 261.139 523.052C258.644 522.988 256.158 522.715 253.707 522.236C256.197 521.895 258.721 521.895 261.211 522.236C263.715 522.284 266.202 522.674 268.6 523.396Z" fill="#263238"/>
<path d="M190.571 402.492C192.275 404.912 194.723 405.757 197.559 406.215C200.416 406.556 203.307 406.503 206.151 406.058C224.452 404.024 243.841 402.149 261.755 397.795C238.557 399.084 214.07 398.654 190.871 399.958C190.871 399.958 190.671 401.547 190.628 401.934" fill="#263238"/>
<path d="M214.485 435.199L227.545 485.935L226.628 437.333L214.485 435.199Z" fill="#263238"/>
<path d="M211.85 253.335C206.809 251.989 201.54 257.359 201.368 262.572C201.368 264.004 201.525 265.779 200.466 266.868C199.406 267.956 197.516 267.655 195.926 267.784C194.303 267.946 192.783 268.657 191.619 269.8C190.455 270.944 189.716 272.45 189.525 274.07C189.296 276.39 190.227 278.882 189.253 281.001C188.279 283.121 186.031 283.98 184.47 285.555C183.523 286.627 182.811 287.886 182.379 289.249C181.948 290.613 181.806 292.052 181.964 293.474C182.303 296.316 183.051 299.094 184.184 301.722C185.1 304.171 186.303 306.892 188.766 307.765H209.945L211.535 299.775L214.127 307.765H217.578L215.716 255.884C215.716 255.884 215.702 254.352 211.85 253.335Z" fill="#263238"/>
<path d="M182.881 278.109C182.881 278.109 182.652 278.109 182.308 278.223C182.062 278.357 181.874 278.578 181.782 278.843C181.689 279.107 181.698 279.397 181.807 279.655C182.073 280.24 182.552 280.701 183.146 280.945C183.741 281.188 184.405 281.195 185.005 280.965C185.605 280.735 186.094 280.284 186.372 279.705C186.651 279.127 186.698 278.463 186.504 277.851C186.202 277.164 185.812 276.519 185.344 275.932C184.259 274.485 183.79 272.668 184.041 270.877C184.169 269.884 184.525 268.934 185.082 268.102C185.638 267.27 186.38 266.578 187.248 266.08C188.178 265.536 189.223 265.22 190.299 265.157C191.374 265.095 192.449 265.289 193.435 265.722C195.382 266.567 197.072 267.813 198.948 267.555C199.371 267.538 199.783 267.415 200.146 267.198C200.508 266.98 200.811 266.674 201.024 266.309C201.326 265.495 201.424 264.62 201.311 263.76C201.198 262.117 201.437 260.468 202.012 258.925C202.588 257.381 203.486 255.978 204.647 254.81C206.282 253.279 208.451 252.446 210.69 252.49C211.284 252.507 211.872 252.608 212.437 252.791C212.64 252.84 212.834 252.922 213.01 253.034C212.245 252.888 211.469 252.802 210.69 252.777C208.543 252.826 206.495 253.691 204.962 255.197C203.88 256.334 203.05 257.687 202.53 259.168C202.009 260.65 201.808 262.224 201.941 263.789C202.069 264.757 201.95 265.742 201.597 266.653C201.333 267.128 200.953 267.528 200.492 267.816C200.031 268.104 199.505 268.271 198.962 268.3C197.901 268.401 196.832 268.213 195.869 267.755C194.895 267.34 194.007 266.81 193.091 266.424C192.21 266.038 191.251 265.864 190.291 265.916C189.331 265.968 188.397 266.245 187.563 266.724C186.787 267.171 186.125 267.792 185.628 268.537C185.132 269.282 184.814 270.132 184.699 271.02C184.453 272.653 184.865 274.317 185.845 275.646C186.334 276.28 186.734 276.979 187.034 277.722C187.169 278.092 187.228 278.486 187.208 278.879C187.189 279.273 187.09 279.658 186.919 280.013C186.623 280.642 186.116 281.149 185.487 281.445C184.912 281.701 184.269 281.767 183.654 281.631C183.164 281.538 182.709 281.313 182.338 280.98C181.967 280.646 181.694 280.218 181.549 279.741C181.444 279.435 181.46 279.1 181.593 278.805C181.726 278.51 181.966 278.276 182.265 278.152C182.68 277.951 182.895 278.109 182.881 278.109Z" fill="#263238"/>
<path d="M264.92 320.968C264.378 321.044 263.829 321.044 263.287 320.968C261.797 320.789 260.347 320.368 258.991 319.723C256.97 318.774 255.166 317.419 253.693 315.742C251.822 313.71 250.562 311.193 250.055 308.478C249.549 305.763 249.817 302.96 250.829 300.391C251.612 298.298 252.821 296.391 254.38 294.792C255.415 293.706 256.619 292.797 257.946 292.099C258.416 291.817 258.929 291.614 259.464 291.498C257.733 292.485 256.151 293.715 254.767 295.15C253.32 296.739 252.201 298.597 251.473 300.62C250.531 303.074 250.282 305.741 250.754 308.328C251.226 310.914 252.402 313.321 254.151 315.283C255.55 316.917 257.252 318.264 259.163 319.25C260.996 320.08 262.932 320.658 264.92 320.968Z" fill="#263238"/>
</svg>
