<svg width="146" height="146" viewBox="0 0 146 146" fill="none" xmlns="http://www.w3.org/2000/svg">
<g filter="url(#filter0_d)">
<path d="M19 72C19 42.7289 42.7289 19 72 19C101.271 19 125 42.7289 125 72C125 101.271 101.271 125 72 125C42.7289 125 19 101.271 19 72Z" fill="#FCFCFC"/>
</g>
<path d="M46.7121 88.8807C51.8416 88.8695 72.2966 88.7142 72.2966 88.7142L60.8381 82.9283L54.7072 82.9427C54.7058 82.937 50.4566 82.9359 50.4566 82.9359L40.7926 82.9509C38.0604 82.9509 35.828 80.8841 35.8223 78.3373L35.8029 66.5726C35.7983 64.019 38.0246 61.9451 40.7657 61.9407L71.1232 61.8925C73.8658 61.8911 76.0935 63.9583 76.0981 66.5132L76.1042 82.8794L82.4252 82.8709L82.418 66.5018C82.4165 64.8449 82.0018 63.2838 81.2605 61.8895C79.5029 58.5667 75.9127 56.224 71.7222 56.0219C71.5172 56.0134 71.3211 56.0077 71.1096 56.0077L40.7507 56.0529C34.5284 56.0613 29.4742 60.7809 29.4802 66.5737L29.5042 78.3471C29.5134 84.1415 34.5823 88.8439 40.8105 88.8354" fill="#FFCA1A"/>
<path d="M112.978 66.468L113 78.2343C113.007 84.017 107.97 88.7344 101.761 88.763L91.8774 88.8251C91.2607 88.8251 90.0704 88.7867 90.0704 88.7867V88.7823L71.3668 88.8107C65.1416 88.8194 60.0694 84.1069 60.0634 78.3171L60.0513 61.8873L66.3737 61.8914L66.3841 78.3054C66.3872 80.8506 68.6147 82.9248 71.3576 82.9231L101.716 82.8752C104.456 82.8719 106.681 80.7915 106.671 78.2447L106.657 66.4797C106.654 63.9291 104.422 61.862 101.683 61.8647L81.2514 61.8873C81.1257 61.5959 80.3848 60.5015 80.3848 60.5015C78.8442 58.672 76.9184 56.6499 71.7188 55.9772L101.671 55.9772C102.508 55.9758 103.323 56.0627 104.109 56.2231C109.168 57.256 112.97 61.4529 112.978 66.468Z" fill="#6D6E71"/>
<defs>
<filter id="filter0_d" x="0" y="0" width="146" height="146" filterUnits="userSpaceOnUse" color-interpolation-filters="sRGB">
<feFlood flood-opacity="0" result="BackgroundImageFix"/>
<feColorMatrix in="SourceAlpha" type="matrix" values="0 0 0 0 0 0 0 0 0 0 0 0 0 0 0 0 0 0 127 0"/>
<feOffset dx="1" dy="1"/>
<feGaussianBlur stdDeviation="10"/>
<feColorMatrix type="matrix" values="0 0 0 0 0 0 0 0 0 0 0 0 0 0 0 0 0 0 0.1 0"/>
<feBlend mode="normal" in2="BackgroundImageFix" result="effect1_dropShadow"/>
<feBlend mode="normal" in="SourceGraphic" in2="effect1_dropShadow" result="shape"/>
</filter>
</defs>
</svg>
