<svg width="146" height="146" viewBox="0 0 146 146" fill="none" xmlns="http://www.w3.org/2000/svg">
<g filter="url(#filter0_d)">
<path d="M19 72C19 42.7289 42.7289 19 72 19C101.271 19 125 42.7289 125 72C125 101.271 101.271 125 72 125C42.7289 125 19 101.271 19 72Z" fill="#FCFCFC"/>
</g>
<g clip-path="url(#clip0)">
<path d="M43.3939 102C43.057 102 42.7292 101.867 42.4862 101.621C42.1657 101.297 42.0421 100.826 42.1625 100.386L46.0631 86.1426C43.6347 81.7513 42.3543 76.7836 42.3562 71.7409C42.363 55.3415 55.7087 42 72.1067 42C80.0603 42.0032 87.5338 45.1013 93.151 50.7227C98.7673 56.3445 101.859 63.8175 101.857 71.7647C101.849 88.1646 88.5038 101.507 72.1067 101.507C72.1067 101.507 72.0943 101.507 72.0939 101.507C67.3043 101.505 62.5559 100.338 58.328 98.1269L43.7176 101.958C43.6104 101.986 43.5015 102 43.3939 102Z" fill="#E5E5E5"/>
<path d="M43.3938 100.723L47.4331 85.9727C44.9415 81.6556 43.6309 76.7584 43.6328 71.7413C43.6392 56.046 56.4117 43.2767 72.1066 43.2767C79.7228 43.2799 86.8717 46.2444 92.2477 51.6249C97.6232 57.0055 100.583 64.1576 100.58 71.7642C100.573 87.4591 87.7987 100.23 72.1066 100.23C72.1057 100.23 72.107 100.23 72.1066 100.23H72.0942C67.3289 100.228 62.6469 99.0332 58.4881 96.765L43.3938 100.723ZM59.1871 91.6119L60.0518 92.1242C63.6846 94.2802 67.8498 95.4205 72.0974 95.4228H72.1066C85.1501 95.4228 95.7665 84.8082 95.772 71.7624C95.7743 65.4402 93.3152 59.4952 88.847 55.0233C84.3783 50.5515 78.437 48.0873 72.1153 48.0846C59.0612 48.0846 48.4452 58.6978 48.4402 71.7432C48.4384 76.2137 49.689 80.567 52.0583 84.3344L52.6214 85.2298L50.23 93.9603L59.1871 91.6119Z" fill="white"/>
<path d="M44.384 99.7295L48.2837 85.4889C45.8777 81.3214 44.6129 76.5932 44.6142 71.7505C44.6202 56.5985 56.951 44.2714 72.1016 44.2714C79.4551 44.2746 86.3568 47.1366 91.5455 52.3308C96.7357 57.5251 99.5921 64.4295 99.5894 71.772C99.5829 86.9245 87.2517 99.253 72.1029 99.253C72.1034 99.253 72.1016 99.253 72.1029 99.253H72.0906C67.4905 99.2511 62.9701 98.0966 58.9555 95.9085L44.384 99.7295Z" fill="#06D755"/>
<path d="M43.3938 100.723L47.4331 85.9727C44.9415 81.6556 43.6309 76.7584 43.6328 71.7413C43.6392 56.046 56.4117 43.2767 72.1066 43.2767C79.7228 43.2799 86.8717 46.2444 92.2477 51.6249C97.6232 57.0055 100.583 64.1576 100.58 71.7642C100.573 87.4591 87.7987 100.23 72.1066 100.23C72.1057 100.23 72.107 100.23 72.1066 100.23H72.0942C67.3289 100.228 62.6469 99.0332 58.4881 96.765L43.3938 100.723ZM59.1871 91.6119L60.0518 92.1242C63.6846 94.2802 67.8498 95.4205 72.0974 95.4228H72.1066C85.1501 95.4228 95.7665 84.8082 95.772 71.7624C95.7743 65.4402 93.3152 59.4952 88.847 55.0233C84.3783 50.5515 78.437 48.0873 72.1153 48.0846C59.0612 48.0846 48.4452 58.6978 48.4402 71.7432C48.4384 76.2137 49.689 80.567 52.0583 84.3344L52.6214 85.2298L50.23 93.9603L59.1871 91.6119Z" fill="white"/>
<path fill-rule="evenodd" clip-rule="evenodd" d="M64.9901 59.8413C64.4573 58.6566 63.8961 58.6328 63.3889 58.6122C62.9741 58.5943 62.4994 58.5952 62.0257 58.5952C61.5514 58.5952 60.7805 58.7738 60.1287 59.4856C59.4764 60.1974 57.638 61.9186 57.638 65.4191C57.638 68.9201 60.1877 72.3025 60.5434 72.7777C60.8991 73.2524 65.4653 80.6654 72.6966 83.5172C78.7066 85.8875 79.9292 85.416 81.2339 85.2975C82.5385 85.1789 85.443 83.5763 86.0358 81.9151C86.6291 80.2538 86.6291 78.8302 86.451 78.5322C86.2729 78.236 85.7987 78.058 85.0873 77.7023C84.376 77.3466 80.8782 75.6249 80.2259 75.3878C79.5736 75.1502 79.0993 75.0321 78.6251 75.7444C78.1504 76.4558 76.7881 78.058 76.3729 78.5322C75.9577 79.0078 75.5425 79.0673 74.8311 78.7112C74.1198 78.3546 71.8282 77.6039 69.11 75.18C66.9951 73.2945 65.5669 70.9654 65.1517 70.2531C64.737 69.5417 65.1449 69.1902 65.4644 68.8015C66.0398 68.1016 67.0052 66.8432 67.2423 66.369C67.4795 65.8938 67.3609 65.4786 67.1833 65.1225C67.0052 64.7668 65.6223 61.2484 64.9901 59.8413Z" fill="white"/>
</g>
<defs>
<filter id="filter0_d" x="0" y="0" width="146" height="146" filterUnits="userSpaceOnUse" color-interpolation-filters="sRGB">
<feFlood flood-opacity="0" result="BackgroundImageFix"/>
<feColorMatrix in="SourceAlpha" type="matrix" values="0 0 0 0 0 0 0 0 0 0 0 0 0 0 0 0 0 0 127 0"/>
<feOffset dx="1" dy="1"/>
<feGaussianBlur stdDeviation="10"/>
<feColorMatrix type="matrix" values="0 0 0 0 0 0 0 0 0 0 0 0 0 0 0 0 0 0 0.1 0"/>
<feBlend mode="normal" in2="BackgroundImageFix" result="effect1_dropShadow"/>
<feBlend mode="normal" in="SourceGraphic" in2="effect1_dropShadow" result="shape"/>
</filter>
<clipPath id="clip0">
<rect width="60" height="60" fill="white" transform="translate(42 42)"/>
</clipPath>
</defs>
</svg>
